<?xml version="1.0" encoding="UTF-8" standalone="no"?>
<svg aria-roledescription="flowchart-v2" role="graphics-document document" viewBox="-8 -8 921.12890625 1983.1572265625" height="1983.1572265625" xmlns:xlink="http://www.w3.org/1999/xlink" xmlns="http://www.w3.org/2000/svg" width="921.12890625" id="mermaid-1782234289235"><style>#mermaid-1782234289235{font-family:Inter,system-ui,-apple-system,sans-serif;font-size:13px;fill:#000000;}#mermaid-1782234289235 .error-icon{fill:#552222;}#mermaid-1782234289235 .error-text{fill:#552222;stroke:#552222;}#mermaid-1782234289235 .edge-thickness-normal{stroke-width:2px;}#mermaid-1782234289235 .edge-thickness-thick{stroke-width:3.5px;}#mermaid-1782234289235 .edge-pattern-solid{stroke-dasharray:0;}#mermaid-1782234289235 .edge-pattern-dashed{stroke-dasharray:3;}#mermaid-1782234289235 .edge-pattern-dotted{stroke-dasharray:2;}#mermaid-1782234289235 .marker{fill:#718096;stroke:#718096;}#mermaid-1782234289235 .marker.cross{stroke:#718096;}#mermaid-1782234289235 svg{font-family:Inter,system-ui,-apple-system,sans-serif;font-size:13px;}#mermaid-1782234289235 .label{font-family:Inter,system-ui,-apple-system,sans-serif;color:#000000;}#mermaid-1782234289235 .cluster-label text{fill:#333;}#mermaid-1782234289235 .cluster-label span,#mermaid-1782234289235 p{color:#333;}#mermaid-1782234289235 .label text,#mermaid-1782234289235 span,#mermaid-1782234289235 p{fill:#000000;color:#000000;}#mermaid-1782234289235 .node rect,#mermaid-1782234289235 .node circle,#mermaid-1782234289235 .node ellipse,#mermaid-1782234289235 .node polygon,#mermaid-1782234289235 .node path{fill:#eee;stroke:#999;stroke-width:1px;}#mermaid-1782234289235 .flowchart-label text{text-anchor:middle;}#mermaid-1782234289235 .node .katex path{fill:#000;stroke:#000;stroke-width:1px;}#mermaid-1782234289235 .node .label{text-align:center;}#mermaid-1782234289235 .node.clickable{cursor:pointer;}#mermaid-1782234289235 .arrowheadPath{fill:#333333;}#mermaid-1782234289235 .edgePath .path{stroke:#718096;stroke-width:2.0px;}#mermaid-1782234289235 .flowchart-link{stroke:#718096;fill:none;}#mermaid-1782234289235 .edgeLabel{background-color:white;text-align:center;}#mermaid-1782234289235 .edgeLabel rect{opacity:0.5;background-color:white;fill:white;}#mermaid-1782234289235 .labelBkg{background-color:rgba(255, 255, 255, 0.5);}#mermaid-1782234289235 .cluster rect{fill:hsl(0, 0%, 98.9215686275%);stroke:#707070;stroke-width:1px;}#mermaid-1782234289235 .cluster text{fill:#333;}#mermaid-1782234289235 .cluster span,#mermaid-1782234289235 p{color:#333;}#mermaid-1782234289235 div.mermaidTooltip{position:absolute;text-align:center;max-width:200px;padding:2px;font-family:Inter,system-ui,-apple-system,sans-serif;font-size:12px;background:#e2e8f0;border:1px solid #707070;border-radius:2px;pointer-events:none;z-index:100;}#mermaid-1782234289235 .flowchartTitleText{text-anchor:middle;font-size:18px;fill:#000000;}#mermaid-1782234289235 :root{--mermaid-font-family:"trebuchet ms",verdana,arial,sans-serif;}#mermaid-1782234289235 .default&gt;*{fill:#ffffff!important;stroke:#718096!important;stroke-width:1px!important;color:#2d3748!important;}#mermaid-1782234289235 .default span{fill:#ffffff!important;stroke:#718096!important;stroke-width:1px!important;color:#2d3748!important;}#mermaid-1782234289235 .default tspan{fill:#2d3748!important;}#mermaid-1782234289235 .process&gt;*{fill:#e3f2fd!important;stroke:#1e88e5!important;stroke-width:1.5px!important;color:#0d47a1!important;}#mermaid-1782234289235 .process span{fill:#e3f2fd!important;stroke:#1e88e5!important;stroke-width:1.5px!important;color:#0d47a1!important;}#mermaid-1782234289235 .process tspan{fill:#0d47a1!important;}#mermaid-1782234289235 .decision&gt;*{fill:#fff3e0!important;stroke:#fb8c00!important;stroke-width:1.5px!important;color:#e65100!important;}#mermaid-1782234289235 .decision span{fill:#fff3e0!important;stroke:#fb8c00!important;stroke-width:1.5px!important;color:#e65100!important;}#mermaid-1782234289235 .decision tspan{fill:#e65100!important;}#mermaid-1782234289235 .storage&gt;*{fill:#e8f5e9!important;stroke:#43a047!important;stroke-width:1.5px!important;color:#1b5e20!important;}#mermaid-1782234289235 .storage span{fill:#e8f5e9!important;stroke:#43a047!important;stroke-width:1.5px!important;color:#1b5e20!important;}#mermaid-1782234289235 .storage tspan{fill:#1b5e20!important;}#mermaid-1782234289235 .event&gt;*{fill:#f3e5f5!important;stroke:#8e24aa!important;stroke-width:1.5px!important;color:#4a148c!important;}#mermaid-1782234289235 .event span{fill:#f3e5f5!important;stroke:#8e24aa!important;stroke-width:1.5px!important;color:#4a148c!important;}#mermaid-1782234289235 .event tspan{fill:#4a148c!important;}#mermaid-1782234289235 .system&gt;*{fill:#ffffff!important;stroke:#718096!important;stroke-width:2px!important;}#mermaid-1782234289235 .system span{fill:#ffffff!important;stroke:#718096!important;stroke-width:2px!important;}</style><g><marker orient="auto" markerHeight="12" markerWidth="12" markerUnits="userSpaceOnUse" refY="5" refX="6" viewBox="0 0 10 10" class="marker flowchart" id="mermaid-1782234289235_flowchart-pointEnd"><path style="stroke-width: 1; stroke-dasharray: 1, 0;" class="arrowMarkerPath" d="M 0 0 L 10 5 L 0 10 z"></path></marker><marker orient="auto" markerHeight="12" markerWidth="12" markerUnits="userSpaceOnUse" refY="5" refX="4.5" viewBox="0 0 10 10" class="marker flowchart" id="mermaid-1782234289235_flowchart-pointStart"><path style="stroke-width: 1; stroke-dasharray: 1, 0;" class="arrowMarkerPath" d="M 0 5 L 10 10 L 10 0 z"></path></marker><marker orient="auto" markerHeight="11" markerWidth="11" markerUnits="userSpaceOnUse" refY="5" refX="11" viewBox="0 0 10 10" class="marker flowchart" id="mermaid-1782234289235_flowchart-circleEnd"><circle style="stroke-width: 1; stroke-dasharray: 1, 0;" class="arrowMarkerPath" r="5" cy="5" cx="5"></circle></marker><marker orient="auto" markerHeight="11" markerWidth="11" markerUnits="userSpaceOnUse" refY="5" refX="-1" viewBox="0 0 10 10" class="marker flowchart" id="mermaid-1782234289235_flowchart-circleStart"><circle style="stroke-width: 1; stroke-dasharray: 1, 0;" class="arrowMarkerPath" r="5" cy="5" cx="5"></circle></marker><marker orient="auto" markerHeight="11" markerWidth="11" markerUnits="userSpaceOnUse" refY="5.2" refX="12" viewBox="0 0 11 11" class="marker cross flowchart" id="mermaid-1782234289235_flowchart-crossEnd"><path style="stroke-width: 2; stroke-dasharray: 1, 0;" class="arrowMarkerPath" d="M 1,1 l 9,9 M 10,1 l -9,9"></path></marker><marker orient="auto" markerHeight="11" markerWidth="11" markerUnits="userSpaceOnUse" refY="5.2" refX="-1" viewBox="0 0 11 11" class="marker cross flowchart" id="mermaid-1782234289235_flowchart-crossStart"><path style="stroke-width: 2; stroke-dasharray: 1, 0;" class="arrowMarkerPath" d="M 1,1 l 9,9 M 10,1 l -9,9"></path></marker><g class="root"><g class="clusters"></g><g class="edgePaths"><path marker-end="url(#mermaid-1782234289235_flowchart-pointEnd)" style="fill:none;" class="edge-thickness-normal edge-pattern-solid flowchart-link LS-Start LE-CheckNet" id="L-Start-CheckNet-0" d="M653.113,31L653.113,35.167C653.113,39.333,653.113,47.667,653.179,55.2C653.245,62.734,653.377,69.467,653.443,72.834L653.509,76.201"></path><path marker-end="url(#mermaid-1782234289235_flowchart-pointEnd)" style="fill:none;" class="edge-thickness-normal edge-pattern-solid flowchart-link LS-CheckNet LE-OfflineQueue" id="L-CheckNet-OfflineQueue-0" d="M603.823,227.209L589.414,240.925C575.006,254.64,546.188,282.07,531.78,300.402C517.371,318.733,517.371,327.967,517.371,332.583L517.371,337.2"></path><path marker-end="url(#mermaid-1782234289235_flowchart-pointEnd)" style="fill:none;" class="edge-thickness-normal edge-pattern-solid flowchart-link LS-OfflineQueue LE-WaitOnline" id="L-OfflineQueue-WaitOnline-0" d="M426.85,389.5L405.664,395C384.478,400.5,342.106,411.5,321.659,423.472C301.212,435.444,302.69,448.388,303.429,454.86L304.168,461.332"></path><path marker-end="url(#mermaid-1782234289235_flowchart-pointEnd)" style="fill:none;" class="edge-thickness-normal edge-pattern-solid flowchart-link LS-WaitOnline LE-OfflineQueue" id="L-WaitOnline-OfflineQueue-0" d="M387.782,528.415L419.457,510.763C451.132,493.11,514.482,457.805,540.917,435.256C567.352,412.706,556.871,402.912,551.631,398.016L546.391,393.119"></path><path marker-end="url(#mermaid-1782234289235_flowchart-pointEnd)" style="fill:none;" class="edge-thickness-normal edge-pattern-solid flowchart-link LS-WaitOnline LE-CheckAccountType" id="L-WaitOnline-CheckAccountType-0" d="M315.367,680.953L315.284,686.37C315.201,691.786,315.034,702.62,321.686,718.292C328.337,733.963,341.808,754.474,348.543,764.729L355.278,774.984"></path><path marker-end="url(#mermaid-1782234289235_flowchart-pointEnd)" style="fill:none;" class="edge-thickness-normal edge-pattern-solid flowchart-link LS-CheckNet LE-CheckAccountType" id="L-CheckNet-CheckAccountType-0" d="M689.33,241.283L695.841,252.653C702.351,264.022,715.373,286.761,721.884,307.547C728.395,328.333,728.395,347.167,728.395,366C728.395,384.833,728.395,403.667,728.395,437.329C728.395,470.992,728.395,519.484,728.395,567.977C728.395,616.469,728.395,664.961,683.147,704.712C637.899,744.463,547.404,775.472,502.157,790.977L456.909,806.482"></path><path marker-end="url(#mermaid-1782234289235_flowchart-pointEnd)" style="fill:none;" class="edge-thickness-normal edge-pattern-solid flowchart-link LS-CheckAccountType LE-NoSync" id="L-CheckAccountType-NoSync-0" d="M332.915,853.392L296.981,868.431C261.048,883.469,189.18,913.547,153.246,945.423C117.313,977.298,117.313,1010.972,117.313,1027.809L117.313,1044.645"></path><path marker-end="url(#mermaid-1782234289235_flowchart-pointEnd)" style="fill:none;" class="edge-thickness-normal edge-pattern-solid flowchart-link LS-NoSync LE-EndOffline" id="L-NoSync-EndOffline-0" d="M117.313,1096.945L117.313,1114.665C117.313,1132.385,117.313,1167.826,117.313,1191.496C117.313,1215.166,117.313,1227.066,117.313,1233.016L117.313,1238.966"></path><path marker-end="url(#mermaid-1782234289235_flowchart-pointEnd)" style="fill:none;" class="edge-thickness-normal edge-pattern-solid flowchart-link LS-CheckAccountType LE-CheckAuth" id="L-CheckAccountType-CheckAuth-0" d="M434.511,867.262L449.129,879.989C463.746,892.716,492.98,918.171,507.668,935.598C522.355,953.025,522.495,962.425,522.566,967.125L522.636,971.826"></path><path marker-end="url(#mermaid-1782234289235_flowchart-pointEnd)" style="fill:none;" class="edge-thickness-normal edge-pattern-solid flowchart-link LS-CheckAuth LE-BlockSync" id="L-CheckAuth-BlockSync-0" d="M470.624,1118.674L454.024,1132.773C437.425,1146.872,404.226,1175.069,387.627,1193.784C371.027,1212.499,371.027,1221.732,371.027,1226.349L371.027,1230.966"></path><path marker-end="url(#mermaid-1782234289235_flowchart-pointEnd)" style="fill:none;" class="edge-thickness-normal edge-pattern-solid flowchart-link LS-BlockSync LE-EndPending" id="L-BlockSync-EndPending-0" d="M371.027,1283.266L371.027,1287.432C371.027,1291.599,371.027,1299.932,371.027,1307.382C371.027,1314.832,371.027,1321.399,371.027,1324.682L371.027,1327.966"></path><path marker-end="url(#mermaid-1782234289235_flowchart-pointEnd)" style="fill:none;" class="edge-thickness-normal edge-pattern-solid flowchart-link LS-CheckAuth LE-EncryptE2E" id="L-CheckAuth-EncryptE2E-0" d="M574.806,1118.674L591.239,1132.773C607.671,1146.872,640.537,1175.069,656.97,1193.784C673.402,1212.499,673.402,1221.732,673.402,1226.349L673.402,1230.966"></path><path marker-end="url(#mermaid-1782234289235_flowchart-pointEnd)" style="fill:none;" class="edge-thickness-normal edge-pattern-solid flowchart-link LS-EncryptE2E LE-SendFS" id="L-EncryptE2E-SendFS-0" d="M673.402,1283.266L673.402,1287.432C673.402,1291.599,673.402,1299.932,673.402,1307.382C673.402,1314.832,673.402,1321.399,673.402,1324.682L673.402,1327.966"></path><path marker-end="url(#mermaid-1782234289235_flowchart-pointEnd)" style="fill:none;" class="edge-thickness-normal edge-pattern-solid flowchart-link LS-SendFS LE-ConfirmFS" id="L-SendFS-ConfirmFS-0" d="M673.402,1364.266L673.402,1368.432C673.402,1372.599,673.402,1380.932,681.02,1395.96C688.637,1410.988,703.872,1432.71,711.489,1443.571L719.107,1454.432"></path><path marker-end="url(#mermaid-1782234289235_flowchart-pointEnd)" style="fill:none;" class="edge-thickness-normal edge-pattern-solid flowchart-link LS-ConfirmFS LE-UpdateStatus" id="L-ConfirmFS-UpdateStatus-0" d="M766.156,1628.656L766.073,1634.073C765.99,1639.49,765.823,1650.323,765.74,1660.356C765.656,1670.39,765.656,1679.623,765.656,1684.24L765.656,1688.856"></path><path marker-end="url(#mermaid-1782234289235_flowchart-pointEnd)" style="fill:none;" class="edge-thickness-normal edge-pattern-solid flowchart-link LS-ConfirmFS LE-OfflineQueue" id="L-ConfirmFS-OfflineQueue-0" d="M808.589,1457.198L815.897,1445.876C823.206,1434.554,837.824,1411.91,845.133,1393.838C852.441,1375.766,852.441,1362.266,852.441,1348.766C852.441,1335.266,852.441,1321.766,852.441,1306.932C852.441,1292.099,852.441,1275.932,852.441,1258.432C852.441,1240.932,852.441,1222.099,852.441,1191.046C852.441,1159.992,852.441,1116.719,852.441,1073.445C852.441,1030.172,852.441,986.898,852.441,946.081C852.441,905.263,852.441,866.901,852.441,828.539C852.441,790.177,852.441,751.815,852.441,708.388C852.441,664.961,852.441,616.469,852.441,567.977C852.441,519.484,852.441,470.992,816.728,440.724C781.014,410.456,709.587,398.412,673.873,392.39L638.16,386.368"></path><path marker-end="url(#mermaid-1782234289235_flowchart-pointEnd)" style="fill:none;" class="edge-thickness-normal edge-pattern-solid flowchart-link LS-UpdateStatus LE-ShowToast" id="L-UpdateStatus-ShowToast-0" d="M765.656,1789.157L765.656,1793.324C765.656,1797.491,765.656,1805.824,765.656,1813.274C765.656,1820.724,765.656,1827.291,765.656,1830.574L765.656,1833.857"></path><path marker-end="url(#mermaid-1782234289235_flowchart-pointEnd)" style="fill:none;" class="edge-thickness-normal edge-pattern-solid flowchart-link LS-ShowToast LE-EndOnline" id="L-ShowToast-EndOnline-0" d="M765.656,1886.157L765.656,1890.324C765.656,1894.491,765.656,1902.824,765.656,1910.274C765.656,1917.724,765.656,1924.291,765.656,1927.574L765.656,1930.857"></path></g><g class="edgeLabels"><g class="edgeLabel"><g transform="translate(0, 0)" class="label"><foreignObject height="0" width="0"><div style="display: inline-block; white-space: nowrap;" xmlns="http://www.w3.org/1999/xhtml"><span class="edgeLabel"></span></div></foreignObject></g></g><g transform="translate(517.37109375, 309.5)" class="edgeLabel"><g transform="translate(-43.625, -8)" class="label"><foreignObject height="16" width="87.25"><div style="display: inline-block; white-space: nowrap;" xmlns="http://www.w3.org/1999/xhtml"><span class="edgeLabel">Nie lub Offline</span></div></foreignObject></g></g><g class="edgeLabel"><g transform="translate(0, 0)" class="label"><foreignObject height="0" width="0"><div style="display: inline-block; white-space: nowrap;" xmlns="http://www.w3.org/1999/xhtml"><span class="edgeLabel"></span></div></foreignObject></g></g><g transform="translate(577.83203125, 422.5)" class="edgeLabel"><g transform="translate(-10.265625, -8)" class="label"><foreignObject height="16" width="20.53125"><div style="display: inline-block; white-space: nowrap;" xmlns="http://www.w3.org/1999/xhtml"><span class="edgeLabel">Nie</span></div></foreignObject></g></g><g transform="translate(314.8671875, 713.453125)" class="edgeLabel"><g transform="translate(-10.9375, -8)" class="label"><foreignObject height="16" width="21.875"><div style="display: inline-block; white-space: nowrap;" xmlns="http://www.w3.org/1999/xhtml"><span class="edgeLabel">Tak</span></div></foreignObject></g></g><g transform="translate(728.39453125, 422.5)" class="edgeLabel"><g transform="translate(-43.5859375, -8)" class="label"><foreignObject height="16" width="87.171875"><div style="display: inline-block; white-space: nowrap;" xmlns="http://www.w3.org/1999/xhtml"><span class="edgeLabel">Tak lub Online</span></div></foreignObject></g></g><g transform="translate(117.3125, 943.625)" class="edgeLabel"><g transform="translate(-52.9453125, -8)" class="label"><foreignObject height="16" width="105.890625"><div style="display: inline-block; white-space: nowrap;" xmlns="http://www.w3.org/1999/xhtml"><span class="edgeLabel">Gość lub Lokalne</span></div></foreignObject></g></g><g class="edgeLabel"><g transform="translate(0, 0)" class="label"><foreignObject height="0" width="0"><div style="display: inline-block; white-space: nowrap;" xmlns="http://www.w3.org/1999/xhtml"><span class="edgeLabel"></span></div></foreignObject></g></g><g transform="translate(522.21484375, 943.625)" class="edgeLabel"><g transform="translate(-19.59375, -8)" class="label"><foreignObject height="16" width="39.1875"><div style="display: inline-block; white-space: nowrap;" xmlns="http://www.w3.org/1999/xhtml"><span class="edgeLabel">Online</span></div></foreignObject></g></g><g transform="translate(371.02734375, 1203.265625)" class="edgeLabel"><g transform="translate(-93.828125, -8)" class="label"><foreignObject height="16" width="187.65625"><div style="display: inline-block; white-space: nowrap;" xmlns="http://www.w3.org/1999/xhtml"><span class="edgeLabel">Status PENDING lub BLOCKED</span></div></foreignObject></g></g><g class="edgeLabel"><g transform="translate(0, 0)" class="label"><foreignObject height="0" width="0"><div style="display: inline-block; white-space: nowrap;" xmlns="http://www.w3.org/1999/xhtml"><span class="edgeLabel"></span></div></foreignObject></g></g><g transform="translate(673.40234375, 1203.265625)" class="edgeLabel"><g transform="translate(-10.9375, -8)" class="label"><foreignObject height="16" width="21.875"><div style="display: inline-block; white-space: nowrap;" xmlns="http://www.w3.org/1999/xhtml"><span class="edgeLabel">Tak</span></div></foreignObject></g></g><g class="edgeLabel"><g transform="translate(0, 0)" class="label"><foreignObject height="0" width="0"><div style="display: inline-block; white-space: nowrap;" xmlns="http://www.w3.org/1999/xhtml"><span class="edgeLabel"></span></div></foreignObject></g></g><g class="edgeLabel"><g transform="translate(0, 0)" class="label"><foreignObject height="0" width="0"><div style="display: inline-block; white-space: nowrap;" xmlns="http://www.w3.org/1999/xhtml"><span class="edgeLabel"></span></div></foreignObject></g></g><g transform="translate(765.65625, 1661.15625)" class="edgeLabel"><g transform="translate(-46.3671875, -8)" class="label"><foreignObject height="16" width="92.734375"><div style="display: inline-block; white-space: nowrap;" xmlns="http://www.w3.org/1999/xhtml"><span class="edgeLabel">Tak lub Sukces</span></div></foreignObject></g></g><g transform="translate(852.44140625, 1073.4453125)" class="edgeLabel"><g transform="translate(-52.6875, -8)" class="label"><foreignObject height="16" width="105.375"><div style="display: inline-block; white-space: nowrap;" xmlns="http://www.w3.org/1999/xhtml"><span class="edgeLabel">Nie lub Błąd sieci</span></div></foreignObject></g></g><g class="edgeLabel"><g transform="translate(0, 0)" class="label"><foreignObject height="0" width="0"><div style="display: inline-block; white-space: nowrap;" xmlns="http://www.w3.org/1999/xhtml"><span class="edgeLabel"></span></div></foreignObject></g></g><g class="edgeLabel"><g transform="translate(0, 0)" class="label"><foreignObject height="0" width="0"><div style="display: inline-block; white-space: nowrap;" xmlns="http://www.w3.org/1999/xhtml"><span class="edgeLabel"></span></div></foreignObject></g></g></g><g class="nodes"><g transform="translate(653.11328125, 15.5)" data-id="Start" data-node="true" id="flowchart-Start-139" class="node default system flowchart-label"><rect height="31" width="185.734375" y="-15.5" x="-92.8671875" ry="15.5" rx="15.5" style=""></rect><g transform="translate(-81.4921875, -8)" style="" class="label"><rect></rect><foreignObject height="16" width="162.984375"><div style="display: inline-block; white-space: nowrap;" xmlns="http://www.w3.org/1999/xhtml"><span class="nodeLabel">Inicjalizacja synchronizacji</span></div></foreignObject></g></g><g transform="translate(653.11328125, 178.75)" data-id="CheckNet" data-node="true" id="flowchart-CheckNet-140" class="node default decision flowchart-label"><polygon style="" transform="translate(-97.75,97.75)" class="label-container" points="97.75,0 195.5,-97.75 97.75,-195.5 0,-97.75"></polygon><g transform="translate(-66.75, -16)" style="" class="label"><rect></rect><foreignObject height="32" width="133.5"><div style="display: inline-block; white-space: nowrap;" xmlns="http://www.w3.org/1999/xhtml"><span class="nodeLabel">Czy aplikacja posiada<br>połączenie sieciowe?</span></div></foreignObject></g></g><g transform="translate(517.37109375, 366)" data-id="OfflineQueue" data-node="true" id="flowchart-OfflineQueue-141" class="node default process flowchart-label"><rect height="47" width="231.125" y="-23.5" x="-115.5625" ry="0" rx="0" style="" class="basic label-container"></rect><g transform="translate(-108.0625, -16)" style="" class="label"><rect></rect><foreignObject height="32" width="216.125"><div style="display: inline-block; white-space: nowrap;" xmlns="http://www.w3.org/1999/xhtml"><span class="nodeLabel">Kolejkowanie rekordu w IndexedDB<br>Oczekiwanie w tle</span></div></foreignObject></g></g><g transform="translate(314.8671875, 567.9765625)" data-id="WaitOnline" data-node="true" id="flowchart-WaitOnline-142" class="node default event flowchart-label"><polygon style="" transform="translate(-112.4765625,112.4765625)" class="label-container" points="112.4765625,0 224.953125,-112.4765625 112.4765625,-224.953125 0,-112.4765625"></polygon><g transform="translate(-81.4765625, -16)" style="" class="label"><rect></rect><foreignObject height="32" width="162.953125"><div style="display: inline-block; white-space: nowrap;" xmlns="http://www.w3.org/1999/xhtml"><span class="nodeLabel">Wykryto zdarzenie online?<br>window.online</span></div></foreignObject></g></g><g transform="translate(390.1484375, 828.5390625)" data-id="CheckAccountType" data-node="true" id="flowchart-CheckAccountType-143" class="node default decision flowchart-label"><polygon style="" transform="translate(-82.0859375,82.0859375)" class="label-container" points="82.0859375,0 164.171875,-82.0859375 82.0859375,-164.171875 0,-82.0859375"></polygon><g transform="translate(-59.0859375, -8)" style="" class="label"><rect></rect><foreignObject height="16" width="118.171875"><div style="display: inline-block; white-space: nowrap;" xmlns="http://www.w3.org/1999/xhtml"><span class="nodeLabel">Jaki jest typ konta?</span></div></foreignObject></g></g><g transform="translate(117.3125, 1073.4453125)" data-id="NoSync" data-node="true" id="flowchart-NoSync-144" class="node default process flowchart-label"><rect height="47" width="234.625" y="-23.5" x="-117.3125" ry="0" rx="0" style="" class="basic label-container"></rect><g transform="translate(-109.8125, -16)" style="" class="label"><rect></rect><foreignObject height="32" width="219.625"><div style="display: inline-block; white-space: nowrap;" xmlns="http://www.w3.org/1999/xhtml"><span class="nodeLabel">Brak synchronizacji<br>Wyniki pozostają wyłącznie lokalnie</span></div></foreignObject></g></g><g transform="translate(117.3125, 1259.765625)" data-id="EndOffline" data-node="true" id="flowchart-EndOffline-145" class="node default system flowchart-label"><rect height="31" width="190.640625" y="-15.5" x="-95.3203125" ry="15.5" rx="15.5" style=""></rect><g transform="translate(-83.9453125, -8)" style="" class="label"><rect></rect><foreignObject height="16" width="167.890625"><div style="display: inline-block; white-space: nowrap;" xmlns="http://www.w3.org/1999/xhtml"><span class="nodeLabel">Koniec - zapis tylko lokalny</span></div></foreignObject></g></g><g transform="translate(522.21484375, 1073.4453125)" data-id="CheckAuth" data-node="true" id="flowchart-CheckAuth-146" class="node default decision flowchart-label"><polygon style="" transform="translate(-96.8203125,96.8203125)" class="label-container" points="96.8203125,0 193.640625,-96.8203125 96.8203125,-193.640625 0,-96.8203125"></polygon><g transform="translate(-65.8203125, -16)" style="" class="label"><rect></rect><foreignObject height="32" width="131.640625"><div style="display: inline-block; white-space: nowrap;" xmlns="http://www.w3.org/1999/xhtml"><span class="nodeLabel">Czy status konta to<br>APPROVED / ADMIN?</span></div></foreignObject></g></g><g transform="translate(371.02734375, 1259.765625)" data-id="BlockSync" data-node="true" id="flowchart-BlockSync-147" class="node default process flowchart-label"><rect height="47" width="195.953125" y="-23.5" x="-97.9765625" ry="0" rx="0" style="" class="basic label-container"></rect><g transform="translate(-90.4765625, -16)" style="" class="label"><rect></rect><foreignObject height="32" width="180.953125"><div style="display: inline-block; white-space: nowrap;" xmlns="http://www.w3.org/1999/xhtml"><span class="nodeLabel">Zablokowanie synchronizacji<br>Wymaga zatwierdzenia konta</span></div></foreignObject></g></g><g transform="translate(371.02734375, 1348.765625)" data-id="EndPending" data-node="true" id="flowchart-EndPending-148" class="node default system flowchart-label"><rect height="31" width="227.609375" y="-15.5" x="-113.8046875" ry="15.5" rx="15.5" style=""></rect><g transform="translate(-102.4296875, -8)" style="" class="label"><rect></rect><foreignObject height="16" width="204.859375"><div style="display: inline-block; white-space: nowrap;" xmlns="http://www.w3.org/1999/xhtml"><span class="nodeLabel">Koniec - wynik pozostaje lokalnie</span></div></foreignObject></g></g><g transform="translate(673.40234375, 1259.765625)" data-id="EncryptE2E" data-node="true" id="flowchart-EncryptE2E-149" class="node default process flowchart-label"><rect height="47" width="250.109375" y="-23.5" x="-125.0546875" ry="0" rx="0" style="" class="basic label-container"></rect><g transform="translate(-117.5546875, -16)" style="" class="label"><rect></rect><foreignObject height="32" width="235.109375"><div style="display: inline-block; white-space: nowrap;" xmlns="http://www.w3.org/1999/xhtml"><span class="nodeLabel">Szyfrowanie End-to-End<br>Klucz E2E AES-GCM z PIN lub Backup</span></div></foreignObject></g></g><g transform="translate(673.40234375, 1348.765625)" data-id="SendFS" data-node="true" id="flowchart-SendFS-150" class="node default process flowchart-label"><rect height="31" width="277.140625" y="-15.5" x="-138.5703125" ry="0" rx="0" style="" class="basic label-container"></rect><g transform="translate(-131.0703125, -8)" style="" class="label"><rect></rect><foreignObject height="16" width="262.140625"><div style="display: inline-block; white-space: nowrap;" xmlns="http://www.w3.org/1999/xhtml"><span class="nodeLabel">Przesłanie szyfrogramu do Cloud Firestore</span></div></foreignObject></g></g><g transform="translate(765.65625, 1521.2109375)" data-id="ConfirmFS" data-node="true" id="flowchart-ConfirmFS-151" class="node default decision flowchart-label"><polygon style="" transform="translate(-106.9453125,106.9453125)" class="label-container" points="106.9453125,0 213.890625,-106.9453125 106.9453125,-213.890625 0,-106.9453125"></polygon><g transform="translate(-75.9453125, -16)" style="" class="label"><rect></rect><foreignObject height="32" width="151.890625"><div style="display: inline-block; white-space: nowrap;" xmlns="http://www.w3.org/1999/xhtml"><span class="nodeLabel">Czy Firebase potwierdził<br>poprawny zapis?</span></div></foreignObject></g></g><g transform="translate(765.65625, 1741.656723022461)" data-id="UpdateStatus" data-node="true" id="flowchart-UpdateStatus-152" class="node default storage flowchart-label"><path transform="translate(-111.1171875,-47.500472483463085)" d="M 0,16.000314988975386 a 111.1171875,16.000314988975386 0,0,0 222.234375 0 a 111.1171875,16.000314988975386 0,0,0 -222.234375 0 l 0,63.00031498897539 a 111.1171875,16.000314988975386 0,0,0 222.234375 0 l 0,-63.00031498897539" style=""></path><g transform="translate(-103.6171875, -16)" style="" class="label"><rect></rect><foreignObject height="32" width="207.234375"><div style="display: inline-block; white-space: nowrap;" xmlns="http://www.w3.org/1999/xhtml"><span class="nodeLabel">Aktualizacja statusu w IndexedDB<br>Zmiana statusu na SYNCED</span></div></foreignObject></g></g><g transform="translate(765.65625, 1862.6571960449219)" data-id="ShowToast" data-node="true" id="flowchart-ShowToast-153" class="node default process flowchart-label"><rect height="47" width="198.5625" y="-23.5" x="-99.28125" ry="0" rx="0" style="" class="basic label-container"></rect><g transform="translate(-91.78125, -16)" style="" class="label"><rect></rect><foreignObject height="32" width="183.5625"><div style="display: inline-block; white-space: nowrap;" xmlns="http://www.w3.org/1999/xhtml"><span class="nodeLabel">Powiadomienie badacza<br>Wizualny Toast w Launcherze</span></div></foreignObject></g></g><g transform="translate(765.65625, 1951.6571960449219)" data-id="EndOnline" data-node="true" id="flowchart-EndOnline-154" class="node default system flowchart-label"><rect height="31" width="172.484375" y="-15.5" x="-86.2421875" ry="15.5" rx="15.5" style=""></rect><g transform="translate(-74.8671875, -8)" style="" class="label"><rect></rect><foreignObject height="16" width="149.734375"><div style="display: inline-block; white-space: nowrap;" xmlns="http://www.w3.org/1999/xhtml"><span class="nodeLabel">Koniec - status SYNCED</span></div></foreignObject></g></g></g></g></g></svg>